<svg width="502" height="166"><g xmlns="http://www.w3.org/2000/svg" rel="mainfill" name="main_text" feature="main_text" groupname="main_text" fill="#ffffff" transform="translate(177.57729003163934, -3.1049628360817927) scale(3.3874045519696336)"><path d="M3.2 20l0-0.3 1.72 0 0-12.62 -2.44 0c-1.02 0-1.44 0.54-1.6 2l-0.16 1.44 -0.3 0s0.12-1.8 0.12-2.48l0-1.26 11.22 0 0 1.26c0 0.68 0.08 2.48 0.08 2.48l-0.3 0 -0.14-1.48c-0.12-1.36-0.5-1.96-1.54-1.96l-2.5 0 0 12.62 1.74 0 0 0.3 -5.9 0zM12.54 20l0-0.3 1.32 0 0-13.76 -1.34 0 0-0.3 3.58 0 0 7.4 0.04 0c0.2-0.52 0.92-2.18 3.24-2.18 1.82 0 2.82 0.78 2.82 2.74l0 6.1 1.34 0 0 0.3 -4.76 0 0-0.3 1.18 0 0-6.58c0-1.28-0.32-1.78-1.24-1.78 -1.9 0-2.62 2.22-2.62 3.26l0 5.1 1.2 0 0 0.3 -4.76 0zM26.84 15.26l0 0.3c0 3.54 0.84 4.26 2.3 4.26 1.48 0 2.86-0.94 2.86-2.44l0.3 0c-0.02 1.2-0.72 2.02-1.74 2.46 -0.52 0.22-1.02 0.3-1.64 0.3 -2.62 0-4.44-1.26-4.44-4.64 0-3.3 1.74-4.64 4.28-4.64 2.36 0 3.74 1.18 3.74 3.6l0 0.8 -5.66 0zM26.86 14.96l3.42 0 0-0.94c0-1.88-0.36-2.9-1.56-2.9 -1.3 0-1.8 1.06-1.86 3.84zM38.32 20l0-0.3 1.72 0 0-12.62 -1.72 0 0-0.3 5.9 0 0 0.3 -1.74 0 0 12.62 3.96 0c1.22 0 1.44-1.24 1.82-3.66l0.32 0s-0.3 1.78-0.3 3.96l-9.96 0zM55.08 18.5l-0.04 0c-0.4 0.78-1.32 1.64-2.78 1.64 -1.3 0-2.72-0.58-2.72-2.24 0-2.16 2.74-2.86 5.16-2.86l0.2 0 0-2.1c0-1.16-0.34-1.82-1.56-1.82 -1.16 0-1.7 0.5-1.7 1.52 0 0.66 0.26 1.22 0.94 1.1l0 0.16s-0.44 0.14-0.92 0.14c-0.94 0-1.64-0.46-1.64-1.3 0-1.12 1.16-1.88 3.36-1.88 2.72 0 3.76 1 3.76 2.74l0 5.18c0 0.56 0.12 0.86 0.52 0.86 0.62 0 0.88-0.72 0.88-1.38l0.3 0c0 1.28-0.74 1.88-1.8 1.88 -1.12 0-1.88-0.6-1.96-1.64zM54.9 17.9l0-2.56 -0.26 0c-0.92 0-1.5 0.2-1.92 0.48 -0.58 0.4-0.84 1.1-0.84 2.08 0 1.24 0.38 1.76 1.06 1.76 0.34 0 0.68-0.14 1.02-0.36 0.5-0.36 0.94-0.96 0.94-1.4zM59.96 20.14l-0.26 0c0.2-0.5 0.2-1.62 0.2-2.26l0-1.08 0.3 0 0 0.32c0 1.58 1.12 2.72 3.08 2.72 1.26 0 2.38-0.46 2.38-1.56 0-2.2-5.84-0.76-5.84-4.68 0-2.04 1.72-2.74 3.28-2.74 0.98 0 1.78 0.3 2.32 0.76 0.48-0.08 0.7-0.4 0.84-0.76l0.26 0c-0.24 0.5-0.28 1.22-0.28 1.86l0 1.02 -0.3 0 0-0.32c0-1-0.8-2.26-2.86-2.26 -1.24 0-2.3 0.46-2.3 1.52 0 2.24 5.88 0.8 5.88 4.56 0 1.66-1.24 2.9-3.38 2.9 -1.1 0-1.94-0.32-2.52-0.86 -0.42 0.1-0.66 0.48-0.8 0.86zM69 17.32l0-6.02 -1.3 0 0-0.3 0.5 0c1.84 0 2.7-2.12 2.74-3.3l0.3 0 0 3.3 2.28 0 0 0.3 -2.28 0 0 6.58c0 1.1 0.18 1.76 1 1.76 0.46 0 1.24-0.26 1.24-1.54l0.3 0c0 0.88-0.36 2.04-2.2 2.04 -1.94 0-2.58-1.26-2.58-2.82z"/></g><g xmlns="http://www.w3.org/2000/svg" rel="mainfill" name="main_text" feature="main_text_2" groupname="main_text_2" fill="#ffffff" transform="translate(175.88358593850913, 65.89504200963928) scale(3.3874045519696336)"><path d="M12.02 20l-0.3 0c-0.06-0.12-0.3-0.76-0.8-0.92 -0.68 0.56-1.78 1.06-3.78 1.06 -3.68 0-6.22-2.62-6.22-6.76 0-4.04 2.48-6.74 6.48-6.74 1.24 0 2.34 0.38 3.12 1.1 0.58 0 0.88-0.22 1.16-0.96l0.26 0c-0.1 0.36-0.38 2.06-0.38 2.88l0 1.24 -0.3 0 0-0.76c0-1.9-1.6-3.2-3.86-3.2 -3 0-3.86 2.82-3.86 6.58 0 3.9 1 6.32 3.58 6.32 1.32 0 2.68-0.6 2.68-2.2l0-2.8 -1.92 0 0-0.3 5.32 0 0 0.3 -1.18 0 0 5.16zM13.9 20l0-0.3 1.32 0 0-8.4 -1.32 0 0-0.3 3.52 0 0 2.12 0.04 0c0.38-1.08 1.16-2.26 2.6-2.26 1.12 0 2.02 0.68 2.02 1.84 0 1.1-0.76 1.7-1.64 1.7 -0.22 0-0.48-0.04-0.74-0.12l0-0.16c0.62 0.1 0.74-0.68 0.74-1.34 0-0.94-0.3-1.46-0.9-1.46 -0.54 0-1.02 0.42-1.4 1.04 -0.44 0.72-0.68 1.7-0.68 2.24l0 5.1 1.54 0 0 0.3 -5.1 0zM22.62 20l0-0.3 1.32 0 0-8.4 -1.32 0 0-0.3 3.56 0 0 8.7 1.32 0 0 0.3 -4.88 0zM23.7 7.72c0-0.7 0.58-1.26 1.28-1.26 0.68 0 1.24 0.56 1.24 1.26 0 0.68-0.56 1.26-1.24 1.26 -0.7 0-1.28-0.58-1.28-1.26zM28.2 20l0-0.3 1.32 0 0-8.4 -1.32 0 0-0.3 3.52 0 0 2.12 0.04 0c0.24-0.6 0.96-2.26 3.28-2.26 1.82 0 2.82 0.78 2.82 2.74l0 6.1 1.34 0 0 0.3 -4.76 0 0-0.3 1.18 0 0-6.58c0-1.28-0.32-1.78-1.24-1.78 -1.9 0-2.62 2.2-2.62 3.28l0 5.08 1.2 0 0 0.3 -4.76 0zM46.8 20l0-1.92 -0.04 0c-0.42 1.2-1.3 2.06-2.92 2.06 -2.52 0-3.68-1.72-3.68-4.5 0-3.02 1.52-4.78 3.98-4.78 1.44 0 2.22 0.74 2.58 1.52l0.04 0 0-6.44 -1.34 0 0-0.3 3.58 0 0 14.06 1.34 0 0 0.3 -3.54 0zM46.76 16.5l0-2.54c0-1.32-0.72-2.68-2.2-2.68 -1.46 0-2.06 1.34-2.06 4.4 0 2.96 0.56 4.04 1.88 4.04 1.4 0 2.38-1.52 2.38-3.22z"/></g><g xmlns="http://www.w3.org/2000/svg" rel="mainfill" name="slogan_text" feature="slogan_text" groupname="slogan_text" fill="#ffffff" transform="translate(177.6077234489007, 142.1402397392739) scale(0.9969759514520523)"><path d="M11.2 10.87l0-1.69 3.4 0 0 1.69 -1.16 0 -6.48 5.46 6.06 5.98 1.58 0 0 1.68 -3.98 0 0-1.68 -5.88-5.88zM1.42 9.18l4.8 0 0 1.69 -1.5 0 0 11.44 1.48 0 0 1.68 -4.8 0 0-1.68 1.41 0 0-11.44 -1.39 0 0-1.69zM32.71 9.18l10.61 0 0 4.19 -2 0 0-2.5 -5.28 0 0 4.74 4.44 0 0 1.68 -4.44 0 0 5.02 5.28 0 0-2.5 2 0 0 4.18 -10.6 0 0-1.68 1.41 0 0-11.44 -1.41 0 0-1.69zM61.29 9.18l10.61 0 0 4.19 -2 0 0-2.5 -5.28 0 0 4.74 4.44 0 0 1.68 -4.44 0 0 5.02 5.28 0 0-2.5 2 0 0 4.18 -10.6 0 0-1.68 1.41 0 0-11.44 -1.41 0 0-1.69zM89.86 9.18l5.99 0q1 0 1.83 0.26t1.45 0.76 0.95 1.25 0.34 1.73q0 0.81-0.33 1.53t-0.94 1.25 -1.45 0.85 -1.88 0.31l-2.63 0 0 5.18 1.48 0 0 1.68 -4.8 0 0-1.68 1.41 0 0-11.44 -1.41 0 0-1.69zM93.18 10.87l0 4.66 2.67 0q0.56 0 1.02-0.15t0.8-0.44 0.53-0.73 0.19-1.02q0-1.09-0.66-1.7t-2.12-0.61l-2.42 0zM116.9 23.98zM150.12 24.04l0-2.97q-0.37 0.77-0.93 1.34t-1.24 0.94 -1.46 0.56 -1.58 0.19q-1.45 0-2.67-0.48t-2.21-1.54 -1.51-2.5 -0.52-3.02q0-1.58 0.52-2.99t1.46-2.45 2.25-1.64 2.83-0.6q1.41 0 2.42 0.4t1.73 0.97 1.15 1.09l0.95 0 0 1.74 -2.1 0q-0.65-1.11-1.73-1.76t-2.42-0.62q-1.12 0-2.06 0.48t-1.61 1.29 -1.04 1.87 -0.37 2.23q0 1.3 0.41 2.41t1.04 1.81 1.57 1.15 2.07 0.45q1.88 0 3.08-0.91t1.68-2.85l-4.14 0 0-1.68 6.26 0 0 7.1 -1.82 0zM171.14 9.18l6.16 0q0.99 0 1.82 0.26t1.45 0.76 0.95 1.25 0.34 1.73q0 0.56-0.2 1.1t-0.56 1.01 -0.84 0.83 -1.06 0.56q0.24 0.11 0.49 0.31t0.47 0.49 0.4 0.65 0.29 0.79l0.82 3.22 1.28 0 0.02 1.86 -2.88 0 -1.1-4.5q-0.3-1.21-0.92-1.78t-1.69-0.57l-1.9 0 0 5.18 1.48 0 0 1.68 -4.8 0 0-1.68 1.41 0 0-11.44 -1.41 0 0-1.69zM174.46 10.87l0 4.66 2.84 0q0.56 0 1.02-0.15t0.8-0.44 0.53-0.73 0.19-1.01q0-1.1-0.66-1.72t-2.11-0.62l-2.61 0zM201.4 9.18l4.73 0 0 1.69 -1.41 0 0 11.44 1.41 0 0 1.68 -4.73 0 0-1.68 1.41 0 0-11.44 -1.41 0 0-1.69zM234.09 9.18l4.8 0 0 1.69 -1.26 0 0 13.12 -2.5 0 -6.88-12.27 0 10.6 1.52 0 0 1.68 -4.8 0 0-1.68 1.37 0 0-11.44 -1.41 0 0-1.71 3.98 0 6.76 12.16 0.08-0.47 0-9.98 -1.66 0 0-1.69zM256.81 9.18l5.51 0q1.02 0 1.93 0.26t1.71 0.74 1.44 1.15 1.1 1.49 0.7 1.76 0.24 1.96q0 1.04-0.24 1.98t-0.7 1.78 -1.1 1.51 -1.44 1.16 -1.71 0.75 -1.93 0.26l-5.51 0 0-1.68 1.41 0 0-11.44 -1.41 0 0-1.69zM260.13 10.87l0 11.44 2.3 0q1.03 0 1.93-0.45t1.58-1.23 1.06-1.83 0.39-2.26q0-1.19-0.39-2.23t-1.06-1.8 -1.58-1.21 -1.93-0.44l-2.3 0zM287.54 9.18l4.73 0 0 1.69 -1.41 0 0 11.44 1.41 0 0 1.68 -4.73 0 0-1.68 1.41 0 0-11.44 -1.41 0 0-1.69zM320.23 9.18l4.8 0 0 1.69 -1.26 0 0 13.12 -2.5 0 -6.88-12.27 0 10.6 1.52 0 0 1.68 -4.8 0 0-1.68 1.37 0 0-11.44 -1.41 0 0-1.71 3.98 0 6.76 12.16 0.08-0.47 0-9.98 -1.66 0 0-1.69z"/></g><g xmlns="http://www.w3.org/2000/svg" rel="mainfill" name="symbol" feature="symbol" fill="#abb9c5" transform="translate(-0.4016923894517852, -4.037120987969871) scale(2.813228572044043)"><metadata><sfw xmlns="http://ns.adobe.com/SaveForWeb/1.0/"><slicesourcebounds y="-8160" x="-8165" width="16389" height="16384" bottomleftorigin="true"/></sfw></metadata><path d="M43.7 30.55c-0.33 1.21-2.04 4.45-3.29 6.65l-1.5 2.7c-5.08-3.01-7.29-10.82-5.05-19.14 2.19-8.1 8.12-13.98 14.1-13.98 0.26 0 0.52 0.03 0.77 0.05 0 0-0.65 1.17-0.66 1.19 -0.35 0.61-3.48 6.04-4.11 8.34 -1.02 3.78-0.57 6.03-0.16 8.02C44.16 26.14 44.47 27.68 43.7 30.55zM57.57 14.66c-1.01-3.02-2.74-5.28-4.96-6.59l-1.24 2.25c0 0-3.2 5.78-3.55 7.07 -0.77 2.87-0.46 4.4-0.1 6.18 0.4 1.99 0.86 4.24-0.16 8.02 -0.62 2.31-4.12 8.35-4.12 8.36l-0.64 1.17c0.26 0.02 0.51 0.05 0.77 0.05 5.98 0 11.91-5.88 14.1-13.98C58.85 22.81 58.81 18.37 57.57 14.66zM24.4 47.01c-1.83-2.17-3.25-2.73-4.9-3.39 -1.88-0.74-4.01-1.58-6.49-4.53 -1.2-1.43-2.99-5.17-3.87-7.07l-0.01 0.01L8.13 29.83c-1.96 2.25-2.88 5.34-2.61 8.87 0.3 3.91 2.04 7.93 4.9 11.33 3.8 4.51 8.97 7.2 13.83 7.2 1.75 0 3.37-0.36 4.82-1.05 0 0-0.95-2.05-0.96-2.08C27.13 51.9 25.27 48.04 24.4 47.01zM30.05 33.5c-3.8-4.51-8.97-7.2-13.83-7.2 -1.75 0-3.37 0.37-4.82 1.05 0 0 0.94 2.04 0.96 2.09 0.98 2.19 2.85 6.06 3.71 7.09 1.83 2.17 3.25 2.74 4.9 3.39 1.88 0.74 4.01 1.58 6.49 4.53 1.31 1.55 4.08 7.51 4.08 7.51l0.8 1.76c1.96-2.25 2.88-5.34 2.61-8.87C34.65 40.91 32.91 36.89 30.05 33.5z"/></g></svg>
