<svg width="502" height="166">
  <defs id="SvgjsDefs1285">
  </defs>
  <g id="main_text" rel="mainfill" name="main_text" feature="main_text" xmlns:name="mainText_mainfill" groupname="main_text" fill="#ffffff" transform="translate(177.57729003163934, -3.1049628360817927) scale(3.3874045519696336)">
    <path d="M3.2 20 l0 -0.3 l1.72 0 l0 -12.62 l-2.44 0 c-1.02 0 -1.44 0.54 -1.6 2 l-0.16 1.44 l-0.3 0 s0.12 -1.8 0.12 -2.48 l0 -1.26 l11.22 0 l0 1.26 c0 0.68 0.08 2.48 0.08 2.48 l-0.3 0 l-0.14 -1.48 c-0.12 -1.36 -0.5 -1.96 -1.54 -1.96 l-2.5 0 l0 12.62 l1.74 0 l0 0.3 l-5.9 0 z M12.540000000000001 20 l0 -0.3 l1.32 0 l0 -13.76 l-1.34 0 l0 -0.3 l3.58 0 l0 7.4 l0.04 0 c0.2 -0.52 0.92 -2.18 3.24 -2.18 c1.82 0 2.82 0.78 2.82 2.74 l0 6.1 l1.34 0 l0 0.3 l-4.76 0 l0 -0.3 l1.18 0 l0 -6.58 c0 -1.28 -0.32 -1.78 -1.24 -1.78 c-1.9 0 -2.62 2.22 -2.62 3.26 l0 5.1 l1.2 0 l0 0.3 l-4.76 0 z M26.84 15.26 l0 0.3 c0 3.54 0.84 4.26 2.3 4.26 c1.48 0 2.86 -0.94 2.86 -2.44 l0.3 0 c-0.02 1.2 -0.72 2.02 -1.74 2.46 c-0.52 0.22 -1.02 0.3 -1.64 0.3 c-2.62 0 -4.44 -1.26 -4.44 -4.64 c0 -3.3 1.74 -4.64 4.28 -4.64 c2.36 0 3.74 1.18 3.74 3.6 l0 0.8 l-5.66 0 z M26.86 14.96 l3.42 0 l0 -0.94 c0 -1.88 -0.36 -2.9 -1.56 -2.9 c-1.3 0 -1.8 1.06 -1.86 3.84 z  M38.31999999999999 20 l0 -0.3 l1.72 0 l0 -12.62 l-1.72 0 l0 -0.3 l5.9 0 l0 0.3 l-1.74 0 l0 12.62 l3.96 0 c1.22 0 1.44 -1.24 1.82 -3.66 l0.32 0 s-0.3 1.78 -0.3 3.96 l-9.96 0 z M55.08 18.5 l-0.04 0 c-0.4 0.78 -1.32 1.64 -2.78 1.64 c-1.3 0 -2.72 -0.58 -2.72 -2.24 c0 -2.16 2.74 -2.86 5.16 -2.86 l0.2 0 l0 -2.1 c0 -1.16 -0.34 -1.82 -1.56 -1.82 c-1.16 0 -1.7 0.5 -1.7 1.52 c0 0.66 0.26 1.22 0.94 1.1 l0 0.16 s-0.44 0.14 -0.92 0.14 c-0.94 0 -1.64 -0.46 -1.64 -1.3 c0 -1.12 1.16 -1.88 3.36 -1.88 c2.72 0 3.76 1 3.76 2.74 l0 5.18 c0 0.56 0.12 0.86 0.52 0.86 c0.62 0 0.88 -0.72 0.88 -1.38 l0.3 0 c0 1.28 -0.74 1.88 -1.8 1.88 c-1.12 0 -1.88 -0.6 -1.96 -1.64 z M54.89999999999999 17.9 l0 -2.56 l-0.26 0 c-0.92 0 -1.5 0.2 -1.92 0.48 c-0.58 0.4 -0.84 1.1 -0.84 2.08 c0 1.24 0.38 1.76 1.06 1.76 c0.34 0 0.68 -0.14 1.02 -0.36 c0.5 -0.36 0.94 -0.96 0.94 -1.4 z M59.959999999999994 20.14 l-0.26 0 c0.2 -0.5 0.2 -1.62 0.2 -2.26 l0 -1.08 l0.3 0 l0 0.32 c0 1.58 1.12 2.72 3.08 2.72 c1.26 0 2.38 -0.46 2.38 -1.56 c0 -2.2 -5.84 -0.76 -5.84 -4.68 c0 -2.04 1.72 -2.74 3.28 -2.74 c0.98 0 1.78 0.3 2.32 0.76 c0.48 -0.08 0.7 -0.4 0.84 -0.76 l0.26 0 c-0.24 0.5 -0.28 1.22 -0.28 1.86 l0 1.02 l-0.3 0 l0 -0.32 c0 -1 -0.8 -2.26 -2.86 -2.26 c-1.24 0 -2.3 0.46 -2.3 1.52 c0 2.24 5.88 0.8 5.88 4.56 c0 1.66 -1.24 2.9 -3.38 2.9 c-1.1 0 -1.94 -0.32 -2.52 -0.86 c-0.42 0.1 -0.66 0.48 -0.8 0.86 z M68.99999999999999 17.32 l0 -6.02 l-1.3 0 l0 -0.3 l0.5 0 c1.84 0 2.7 -2.12 2.74 -3.3 l0.3 0 l0 3.3 l2.28 0 l0 0.3 l-2.28 0 l0 6.58 c0 1.1 0.18 1.76 1 1.76 c0.46 0 1.24 -0.26 1.24 -1.54 l0.3 0 c0 0.88 -0.36 2.04 -2.2 2.04 c-1.94 0 -2.58 -1.26 -2.58 -2.82 z">
    </path>
  </g>
  <g id="SvgjsG1287" rel="mainfill" name="main_text" feature="main_text_2" xmlns:name="mainText_mainfill" groupname="main_text_2" fill="#ffffff" transform="translate(175.88358593850913, 65.89504200963928) scale(3.3874045519696336)">
    <path d="M12.02 20 l-0.3 0 c-0.06 -0.12 -0.3 -0.76 -0.8 -0.92 c-0.68 0.56 -1.78 1.06 -3.78 1.06 c-3.68 0 -6.22 -2.62 -6.22 -6.76 c0 -4.04 2.48 -6.74 6.48 -6.74 c1.24 0 2.34 0.38 3.12 1.1 c0.58 0 0.88 -0.22 1.16 -0.96 l0.26 0 c-0.1 0.36 -0.38 2.06 -0.38 2.88 l0 1.24 l-0.3 0 l0 -0.76 c0 -1.9 -1.6 -3.2 -3.86 -3.2 c-3 0 -3.86 2.82 -3.86 6.58 c0 3.9 1 6.32 3.58 6.32 c1.32 0 2.68 -0.6 2.68 -2.2 l0 -2.8 l-1.92 0 l0 -0.3 l5.32 0 l0 0.3 l-1.18 0 l0 5.16 z M13.9 20 l0 -0.3 l1.32 0 l0 -8.4 l-1.32 0 l0 -0.3 l3.52 0 l0 2.12 l0.04 0 c0.38 -1.08 1.16 -2.26 2.6 -2.26 c1.12 0 2.02 0.68 2.02 1.84 c0 1.1 -0.76 1.7 -1.64 1.7 c-0.22 0 -0.48 -0.04 -0.74 -0.12 l0 -0.16 c0.62 0.1 0.74 -0.68 0.74 -1.34 c0 -0.94 -0.3 -1.46 -0.9 -1.46 c-0.54 0 -1.02 0.42 -1.4 1.04 c-0.44 0.72 -0.68 1.7 -0.68 2.24 l0 5.1 l1.54 0 l0 0.3 l-5.1 0 z M22.620000000000005 20 l0 -0.3 l1.32 0 l0 -8.4 l-1.32 0 l0 -0.3 l3.56 0 l0 8.7 l1.32 0 l0 0.3 l-4.88 0 z M23.700000000000003 7.720000000000001 c0 -0.7 0.58 -1.26 1.28 -1.26 c0.68 0 1.24 0.56 1.24 1.26 c0 0.68 -0.56 1.26 -1.24 1.26 c-0.7 0 -1.28 -0.58 -1.28 -1.26 z M28.200000000000003 20 l0 -0.3 l1.32 0 l0 -8.4 l-1.32 0 l0 -0.3 l3.52 0 l0 2.12 l0.04 0 c0.24 -0.6 0.96 -2.26 3.28 -2.26 c1.82 0 2.82 0.78 2.82 2.74 l0 6.1 l1.34 0 l0 0.3 l-4.76 0 l0 -0.3 l1.18 0 l0 -6.58 c0 -1.28 -0.32 -1.78 -1.24 -1.78 c-1.9 0 -2.62 2.2 -2.62 3.28 l0 5.08 l1.2 0 l0 0.3 l-4.76 0 z M46.800000000000004 20 l0 -1.92 l-0.04 0 c-0.42 1.2 -1.3 2.06 -2.92 2.06 c-2.52 0 -3.68 -1.72 -3.68 -4.5 c0 -3.02 1.52 -4.78 3.98 -4.78 c1.44 0 2.22 0.74 2.58 1.52 l0.04 0 l0 -6.44 l-1.34 0 l0 -0.3 l3.58 0 l0 14.06 l1.34 0 l0 0.3 l-3.54 0 z M46.760000000000005 16.5 l0 -2.54 c0 -1.32 -0.72 -2.68 -2.2 -2.68 c-1.46 0 -2.06 1.34 -2.06 4.4 c0 2.96 0.56 4.04 1.88 4.04 c1.4 0 2.38 -1.52 2.38 -3.22 z">
    </path>
  </g>
  <g id="slogan_text" rel="mainfill" name="slogan_text" feature="slogan_text" xmlns:name="sloganText_mainfill" groupname="slogan_text" fill="#ffffff" transform="translate(177.6077234489007, 142.1402397392739) scale(0.9969759514520523)">
    <path d="M11.201 10.869375 l0 -1.6895 l3.3984 0 l0 1.6895 l-1.1621 0 l-6.4844 5.459 l6.0645 5.9766 l1.582 0 l0 1.6797 l-3.9844 0 l0 -1.6797 l-5.8789 -5.8789 z M1.416 9.179375 l4.8047 0 l0 1.6895 l-1.5039 0 l0 11.436 l1.4844 0 l0 1.6797 l-4.8047 0 l0 -1.6797 l1.4063 0 l0 -11.436 l-1.3867 0 l0 -1.6895 z M32.714859375 9.179375 l10.605 0 l0 4.1895 l-2.002 0 l0 -2.5 l-5.2832 0 l0 4.7363 l4.4434 0 l0 1.6797 l-4.4434 0 l0 5.0195 l5.2832 0 l0 -2.5 l2.002 0 l0 4.1797 l-10.605 0 l0 -1.6797 l1.4063 0 l0 -11.436 l-1.4063 0 l0 -1.6895 z M61.289078125 9.179375 l10.605 0 l0 4.1895 l-2.002 0 l0 -2.5 l-5.2832 0 l0 4.7363 l4.4434 0 l0 1.6797 l-4.4434 0 l0 5.0195 l5.2832 0 l0 -2.5 l2.002 0 l0 4.1797 l-10.605 0 l0 -1.6797 l1.4063 0 l0 -11.436 l-1.4063 0 l0 -1.6895 z M89.863296875 9.179375 l5.9863 0 q0.99609375 0 1.831054688 0.2587890625 t1.4453 0.76172 t0.94727 1.2549 t0.33691 1.7285 q0 0.810546875 -0.33203125 1.528320313 t-0.9375 1.2549 t-1.4502 0.84961 t-1.8799 0.3125 l-2.627 0 l0 5.1758 l1.4844 0 l0 1.6797 l-4.8047 0 l0 -1.6797 l1.4063 0 l0 -11.436 l-1.4063 0 l0 -1.6895 z M93.183596875 10.869375 l0 4.6582 l2.666 0 q0.556640625 0 1.020507813 -0.1513671875 t0.80078 -0.44434 t0.52734 -0.73242 t0.19043 -1.0156 q0 -1.09375 -0.6640625 -1.704101563 t-2.1191 -0.61035 l-2.4219 0 z M116.904296875 23.984375 z M150.116921875 24.042969 l0 -2.9688 q-0.37109375 0.771484375 -0.927734375 1.342773438 t-1.2402 0.94238 t-1.46 0.55664 t-1.5771 0.18555 q-1.4453125 0 -2.666015625 -0.4833984375 t-2.2119 -1.5381 t-1.5137 -2.5 t-0.52246 -3.0176 q0 -1.58203125 0.5224609375 -2.98828125 t1.4648 -2.4512 t2.2461 -1.6406 t2.8271 -0.5957 q1.40625 0 2.416992188 0.400390625 t1.7285 0.97168 t1.1475 1.0889 l0.94727 0 l0 1.7383 l-2.0996 0 q-0.654296875 -1.11328125 -1.733398438 -1.7578125 t-2.417 -0.625 q-1.123046875 0 -2.060546875 0.478515625 t-1.6064 1.2891 t-1.04 1.8652 t-0.37109 2.2266 q0 1.298828125 0.41015625 2.412109375 t1.0449 1.8066 t1.5674 1.1475 t2.0654 0.4541 q1.875 0 3.076171875 -0.9130859375 t1.6797 -2.8467 l-4.1406 0 l0 -1.6797 l6.2598 0 l0 7.0996 l-1.8164 0 z M171.14259375 9.179375 l6.1621 0 q0.986328125 0 1.821289063 0.2587890625 t1.4453 0.76172 t0.95215 1.2549 t0.3418 1.7285 q0 0.556640625 -0.2001953125 1.098632813 t-0.55664 1.0059 t-0.84473 0.8252 t-1.0645 0.55664 q0.244140625 0.107421875 0.4931640625 0.3076171875 t0.46875 0.48828 t0.40039 0.6543 t0.28809 0.78613 l0.82031 3.2227 l1.2793 0 l0.019531 1.8555 l-2.8809 0 l-1.1035 -4.502 q-0.302734375 -1.2109375 -0.9228515625 -1.782226563 t-1.6943 -0.57129 l-1.9043 0 l0 5.1758 l1.4844 0 l0 1.6797 l-4.8047 0 l0 -1.6797 l1.4063 0 l0 -11.436 l-1.4063 0 l0 -1.6895 z M174.46289375 10.869375 l0 4.6582 l2.8418 0 q0.556640625 0 1.020507813 -0.146484375 t0.80078 -0.43945 t0.52734 -0.72754 t0.19043 -1.0107 q0 -1.103515625 -0.6640625 -1.71875 t-2.1094 -0.61523 l-2.6074 0 z M201.3965 9.179375 l4.7266 0 l0 1.6895 l-1.4063 0 l0 11.436 l1.4063 0 l0 1.6797 l-4.7266 0 l0 -1.6797 l1.4063 0 l0 -11.436 l-1.4063 0 l0 -1.6895 z M234.09215625 9.179375 l4.8047 0 l0 1.6895 l-1.2598 0 l0 13.115 l-2.5 0 l-6.8848 -12.275 l0 10.596 l1.5234 0 l0 1.6797 l-4.8047 0 l0 -1.6797 l1.3672 0 l0 -11.436 l-1.4063 0 l0 -1.709 l3.9844 0 l6.7578 12.158 l0.078125 -0.46875 l0 -9.9805 l-1.6602 0 l0 -1.6895 z M256.80665625 9.179375 l5.5078 0 q1.015625 0 1.93359375 0.263671875 t1.709 0.74219 t1.4355 1.1475 t1.0986 1.4893 t0.69824 1.7627 t0.24414 1.958 q0 1.03515625 -0.244140625 1.982421875 t-0.69824 1.7773 t-1.0986 1.5088 t-1.4355 1.1621 t-1.709 0.74707 t-1.9336 0.26367 l-5.5078 0 l0 -1.6797 l1.4063 0 l0 -11.436 l-1.4063 0 l0 -1.6895 z M260.12695625 10.869375 l0 11.436 l2.3047 0 q1.025390625 0 1.928710938 -0.44921875 t1.5771 -1.2256 t1.0645 -1.8262 t0.39063 -2.2607 q0 -1.19140625 -0.390625 -2.2265625 t-1.0645 -1.8018 t-1.5771 -1.2061 t-1.9287 -0.43945 l-2.3047 0 z M287.539078125 9.179375 l4.7266 0 l0 1.6895 l-1.4063 0 l0 11.436 l1.4063 0 l0 1.6797 l-4.7266 0 l0 -1.6797 l1.4063 0 l0 -11.436 l-1.4063 0 l0 -1.6895 z M320.234734375 9.179375 l4.8047 0 l0 1.6895 l-1.2598 0 l0 13.115 l-2.5 0 l-6.8848 -12.275 l0 10.596 l1.5234 0 l0 1.6797 l-4.8047 0 l0 -1.6797 l1.3672 0 l0 -11.436 l-1.4063 0 l0 -1.709 l3.9844 0 l6.7578 12.158 l0.078125 -0.46875 l0 -9.9805 l-1.6602 0 l0 -1.6895 z">
    </path>
  </g>
  <g id="SvgjsG1289" rel="mainfill" name="symbol" feature="symbol" xmlns:name="symbol_mainfill" fill="#abb9c5" transform="translate(-0.4016923894517852, -4.037120987969871) scale(2.813228572044043)">
    <metadata>
      <sfw xmlns="http://ns.adobe.com/SaveForWeb/1.0/">
        <slices>
        </slices>
        <slicesourcebounds y="-8160" x="-8165" width="16389" height="16384" bottomleftorigin="true">
        </slicesourcebounds>
      </sfw>
    </metadata>
    <g>
      <path d="M43.695,30.546c-0.328,1.213-2.043,4.45-3.289,6.647l-1.501,2.695c-5.085-3.01-7.293-10.825-5.048-19.136   c2.19-8.104,8.121-13.985,14.103-13.985c0.26,0,0.517,0.029,0.774,0.051c0,0-0.65,1.171-0.66,1.188   c-0.354,0.611-3.485,6.037-4.109,8.344c-1.021,3.78-0.566,6.03-0.164,8.016C44.16,26.143,44.471,27.677,43.695,30.546z    M57.567,14.661c-1.014-3.017-2.739-5.276-4.958-6.592l-1.235,2.251c0,0-3.197,5.777-3.548,7.074   c-0.775,2.868-0.465,4.402-0.105,6.178c0.402,1.985,0.857,4.236-0.164,8.017c-0.623,2.306-4.118,8.353-4.122,8.36l-0.644,1.171   c0.257,0.022,0.513,0.051,0.771,0.051c5.982,0,11.913-5.881,14.103-13.984C58.846,22.814,58.812,18.366,57.567,14.661z    M24.398,47.009c-1.831-2.174-3.253-2.735-4.899-3.386c-1.878-0.742-4.007-1.583-6.488-4.529c-1.205-1.43-2.995-5.166-3.869-7.068   l-0.012,0.005L8.132,29.83c-1.956,2.253-2.882,5.34-2.611,8.874c0.299,3.908,2.039,7.93,4.898,11.325   c3.8,4.511,8.971,7.203,13.833,7.203c1.748,0,3.374-0.365,4.819-1.054c0,0-0.947-2.052-0.962-2.085   C27.134,51.9,25.265,48.037,24.398,47.009z M30.049,33.496c-3.799-4.511-8.97-7.204-13.833-7.204c-1.747,0-3.374,0.366-4.819,1.053   c0,0,0.941,2.04,0.961,2.085c0.975,2.194,2.845,6.057,3.711,7.085c1.831,2.174,3.252,2.735,4.898,3.386   c1.878,0.742,4.007,1.583,6.488,4.529c1.309,1.553,4.083,7.508,4.083,7.508l0.796,1.756c1.956-2.254,2.88-5.341,2.611-8.874   C34.647,40.912,32.908,36.891,30.049,33.496z">
      </path>
    </g>
  </g>
</svg>
